<svg xmlns="http://www.w3.org/2000/svg" xmlns:xlink="http://www.w3.org/1999/xlink" width="500" zoomAndPan="magnify" viewBox="0 0 375 374.999991" height="500" preserveAspectRatio="xMidYMid meet" version="1.0"><defs><g/></defs><g fill="#d76627" fill-opacity="1"><g transform="translate(37.500002, 189.783029)"><g><path d="M 38.65625 -18.875 L 38.65625 -8.828125 L 3.40625 -22.984375 L 3.40625 -32.375 L 38.65625 -46.515625 L 38.65625 -36.515625 L 16.453125 -28.109375 L 16.453125 -27.28125 Z M 38.65625 -18.875 "/></g></g></g><g fill="#6adafb" fill-opacity="1"><g transform="translate(89.616155, 176.613178)"><g><path d="M 3.734375 0 L 3.734375 -28.78125 L 16.015625 -28.78125 C 17.796875 -28.78125 19.296875 -28.5 20.515625 -27.9375 C 21.742188 -27.382812 22.671875 -26.59375 23.296875 -25.5625 C 23.929688 -24.53125 24.25 -23.3125 24.25 -21.90625 C 24.25 -20.632812 23.941406 -19.507812 23.328125 -18.53125 C 22.710938 -17.5625 21.828125 -16.785156 20.671875 -16.203125 L 20.671875 -15.78125 C 22.484375 -15.3125 23.878906 -14.453125 24.859375 -13.203125 C 25.847656 -11.960938 26.34375 -10.4375 26.34375 -8.625 C 26.34375 -5.863281 25.507812 -3.734375 23.84375 -2.234375 C 22.1875 -0.742188 19.722656 0 16.453125 0 Z M 14.84375 -17.296875 C 17.488281 -17.296875 18.8125 -18.492188 18.8125 -20.890625 C 18.8125 -22.109375 18.484375 -23.015625 17.828125 -23.609375 C 17.171875 -24.203125 16.175781 -24.5 14.84375 -24.5 L 9.421875 -24.5 L 9.421875 -17.296875 Z M 15.890625 -4.5 C 19.023438 -4.5 20.59375 -5.925781 20.59375 -8.78125 C 20.59375 -11.632812 19.023438 -13.0625 15.890625 -13.0625 L 9.421875 -13.0625 L 9.421875 -4.5 Z M 15.890625 -4.5 "/></g></g></g><g fill="#6adafb" fill-opacity="1"><g transform="translate(117.761348, 176.613178)"><g><path d="M 5.84375 -24.3125 C 4.863281 -24.3125 4.0625 -24.609375 3.4375 -25.203125 C 2.820312 -25.796875 2.515625 -26.566406 2.515625 -27.515625 C 2.515625 -28.453125 2.820312 -29.21875 3.4375 -29.8125 C 4.0625 -30.40625 4.863281 -30.703125 5.84375 -30.703125 C 6.5 -30.703125 7.082031 -30.5625 7.59375 -30.28125 C 8.101562 -30.007812 8.5 -29.632812 8.78125 -29.15625 C 9.070312 -28.675781 9.21875 -28.128906 9.21875 -27.515625 C 9.21875 -26.898438 9.070312 -26.347656 8.78125 -25.859375 C 8.5 -25.378906 8.101562 -25 7.59375 -24.71875 C 7.082031 -24.445312 6.5 -24.3125 5.84375 -24.3125 Z M 3.125 0 L 3.125 -21.71875 L 8.578125 -21.71875 L 8.578125 0 Z M 3.125 0 "/></g></g></g><g fill="#6adafb" fill-opacity="1"><g transform="translate(129.452428, 176.613178)"><g><path d="M 9.015625 0.40625 C 7.054688 0.40625 5.5625 -0.117188 4.53125 -1.171875 C 3.5 -2.222656 2.984375 -3.828125 2.984375 -5.984375 L 2.984375 -30.4375 L 8.4375 -30.4375 L 8.4375 -6.203125 C 8.4375 -4.878906 8.988281 -4.21875 10.09375 -4.21875 C 10.40625 -4.21875 10.742188 -4.269531 11.109375 -4.375 L 11.375 -4.296875 L 11.875 -0.09375 C 11.570312 0.0625 11.171875 0.179688 10.671875 0.265625 C 10.171875 0.359375 9.617188 0.40625 9.015625 0.40625 Z M 9.015625 0.40625 "/></g></g></g><g fill="#6adafb" fill-opacity="1"><g transform="translate(141.930787, 176.613178)"><g><path d="M 8.46875 0.40625 C 7.070312 0.40625 5.863281 0.148438 4.84375 -0.359375 C 3.820312 -0.867188 3.035156 -1.617188 2.484375 -2.609375 C 1.929688 -3.597656 1.65625 -4.789062 1.65625 -6.1875 C 1.65625 -7.46875 1.929688 -8.546875 2.484375 -9.421875 C 3.035156 -10.296875 3.882812 -11.007812 5.03125 -11.5625 C 6.1875 -12.125 7.695312 -12.554688 9.5625 -12.859375 C 10.863281 -13.066406 11.851562 -13.296875 12.53125 -13.546875 C 13.207031 -13.796875 13.660156 -14.078125 13.890625 -14.390625 C 14.128906 -14.703125 14.25 -15.101562 14.25 -15.59375 C 14.25 -16.289062 14.003906 -16.820312 13.515625 -17.1875 C 13.035156 -17.550781 12.234375 -17.734375 11.109375 -17.734375 C 9.898438 -17.734375 8.75 -17.460938 7.65625 -16.921875 C 6.5625 -16.390625 5.617188 -15.679688 4.828125 -14.796875 L 4.421875 -14.796875 L 2.140625 -18.25 C 3.242188 -19.46875 4.585938 -20.414062 6.171875 -21.09375 C 7.765625 -21.78125 9.5 -22.125 11.375 -22.125 C 14.25 -22.125 16.328125 -21.515625 17.609375 -20.296875 C 18.898438 -19.078125 19.546875 -17.34375 19.546875 -15.09375 L 19.546875 -5.671875 C 19.546875 -4.703125 19.972656 -4.21875 20.828125 -4.21875 C 21.148438 -4.21875 21.472656 -4.273438 21.796875 -4.390625 L 22.0625 -4.3125 L 22.453125 -0.515625 C 22.148438 -0.316406 21.726562 -0.15625 21.1875 -0.03125 C 20.65625 0.09375 20.066406 0.15625 19.421875 0.15625 C 18.128906 0.15625 17.117188 -0.09375 16.390625 -0.59375 C 15.660156 -1.09375 15.140625 -1.875 14.828125 -2.9375 L 14.40625 -2.96875 C 13.34375 -0.71875 11.363281 0.40625 8.46875 0.40625 Z M 10.203125 -3.65625 C 11.453125 -3.65625 12.453125 -4.078125 13.203125 -4.921875 C 13.960938 -5.773438 14.34375 -6.957031 14.34375 -8.46875 L 14.34375 -10.671875 L 13.96875 -10.75 C 13.644531 -10.488281 13.21875 -10.269531 12.6875 -10.09375 C 12.15625 -9.914062 11.390625 -9.738281 10.390625 -9.5625 C 9.210938 -9.363281 8.363281 -9.023438 7.84375 -8.546875 C 7.320312 -8.066406 7.0625 -7.390625 7.0625 -6.515625 C 7.0625 -5.585938 7.335938 -4.878906 7.890625 -4.390625 C 8.441406 -3.898438 9.210938 -3.65625 10.203125 -3.65625 Z M 10.203125 -3.65625 "/></g></g></g><g fill="#6adafb" fill-opacity="1"><g transform="translate(164.820898, 176.613178)"><g><path d="M 9.015625 0.40625 C 7.054688 0.40625 5.5625 -0.117188 4.53125 -1.171875 C 3.5 -2.222656 2.984375 -3.828125 2.984375 -5.984375 L 2.984375 -30.4375 L 8.4375 -30.4375 L 8.4375 -6.203125 C 8.4375 -4.878906 8.988281 -4.21875 10.09375 -4.21875 C 10.40625 -4.21875 10.742188 -4.269531 11.109375 -4.375 L 11.375 -4.296875 L 11.875 -0.09375 C 11.570312 0.0625 11.171875 0.179688 10.671875 0.265625 C 10.171875 0.359375 9.617188 0.40625 9.015625 0.40625 Z M 9.015625 0.40625 "/></g></g></g><g fill="#6adafb" fill-opacity="1"><g transform="translate(108.772332, 231.212267)"><g><path d="M 27.609375 0 L 21.625 0 L 19.46875 -6.640625 L 8.4375 -6.640625 L 6.28125 0 L 0.4375 0 L 10.375 -28.78125 L 17.671875 -28.78125 Z M 13.6875 -22.78125 L 9.984375 -11.421875 L 17.890625 -11.421875 L 14.171875 -22.78125 Z M 13.6875 -22.78125 "/></g></g></g><g fill="#6adafb" fill-opacity="1"><g transform="translate(136.819115, 231.212267)"><g><path d="M 14.984375 -5.171875 L 16.390625 -1.140625 C 15.804688 -0.648438 15.066406 -0.269531 14.171875 0 C 13.273438 0.269531 12.265625 0.40625 11.140625 0.40625 C 8.796875 0.40625 7.007812 -0.226562 5.78125 -1.5 C 4.5625 -2.78125 3.953125 -4.644531 3.953125 -7.09375 L 3.953125 -17.40625 L 0.65625 -17.40625 L 0.65625 -21.734375 L 3.953125 -21.734375 L 3.953125 -25.96875 L 9.40625 -26.84375 L 9.40625 -21.734375 L 15.5625 -21.734375 L 15.5625 -17.40625 L 9.40625 -17.40625 L 9.40625 -7.484375 C 9.40625 -6.398438 9.628906 -5.613281 10.078125 -5.125 C 10.523438 -4.632812 11.175781 -4.390625 12.03125 -4.390625 C 13 -4.390625 13.84375 -4.648438 14.5625 -5.171875 Z M 14.984375 -5.171875 "/></g></g></g><g fill="#6adafb" fill-opacity="1"><g transform="translate(153.686549, 231.212267)"><g><path d="M 3.125 0 L 3.125 -21.71875 L 8.421875 -21.71875 L 8.421875 -18.484375 L 8.84375 -18.40625 C 9.363281 -19.613281 10.050781 -20.5 10.90625 -21.0625 C 11.757812 -21.625 12.796875 -21.90625 14.015625 -21.90625 C 15.242188 -21.90625 16.179688 -21.695312 16.828125 -21.28125 L 15.90625 -16.578125 L 15.484375 -16.5 C 15.128906 -16.644531 14.785156 -16.75 14.453125 -16.8125 C 14.128906 -16.875 13.734375 -16.90625 13.265625 -16.90625 C 11.742188 -16.90625 10.582031 -16.367188 9.78125 -15.296875 C 8.976562 -14.234375 8.578125 -12.519531 8.578125 -10.15625 L 8.578125 0 Z M 3.125 0 "/></g></g></g><g fill="#6adafb" fill-opacity="1"><g transform="translate(170.711438, 231.212267)"><g><path d="M 11.265625 9.21875 C 7.679688 9.21875 5.035156 8.691406 3.328125 7.640625 C 1.617188 6.585938 0.765625 5.125 0.765625 3.25 C 0.765625 2.101562 1.128906 1.164062 1.859375 0.4375 C 2.585938 -0.289062 3.632812 -0.78125 5 -1.03125 L 5 -1.4375 C 4.257812 -1.882812 3.726562 -2.378906 3.40625 -2.921875 C 3.09375 -3.460938 2.9375 -4.097656 2.9375 -4.828125 C 2.9375 -6.566406 4.070312 -7.738281 6.34375 -8.34375 L 6.34375 -8.765625 C 5.175781 -9.429688 4.296875 -10.257812 3.703125 -11.25 C 3.109375 -12.238281 2.8125 -13.4375 2.8125 -14.84375 C 2.8125 -16.28125 3.140625 -17.546875 3.796875 -18.640625 C 4.460938 -19.742188 5.4375 -20.597656 6.71875 -21.203125 C 8 -21.816406 9.53125 -22.125 11.3125 -22.125 C 13.125 -22.125 14.570312 -21.8125 15.65625 -21.1875 C 16.320312 -22.15625 16.707031 -23.273438 16.8125 -24.546875 L 17.21875 -24.796875 L 21.140625 -23.84375 C 21.023438 -22.800781 20.722656 -21.925781 20.234375 -21.21875 C 19.742188 -20.519531 18.988281 -19.894531 17.96875 -19.34375 L 17.96875 -18.921875 C 19.1875 -17.835938 19.796875 -16.332031 19.796875 -14.40625 C 19.796875 -13.070312 19.460938 -11.875 18.796875 -10.8125 C 18.128906 -9.75 17.15625 -8.90625 15.875 -8.28125 C 14.59375 -7.664062 13.070312 -7.359375 11.3125 -7.359375 L 10.484375 -7.375 C 9.960938 -7.40625 9.597656 -7.421875 9.390625 -7.421875 C 8.890625 -7.421875 8.5 -7.285156 8.21875 -7.015625 C 7.9375 -6.742188 7.796875 -6.398438 7.796875 -5.984375 C 7.796875 -5.523438 7.976562 -5.164062 8.34375 -4.90625 C 8.707031 -4.65625 9.242188 -4.515625 9.953125 -4.484375 L 14.828125 -4.3125 C 19.628906 -4.164062 22.03125 -2.097656 22.03125 1.890625 C 22.03125 3.296875 21.671875 4.546875 20.953125 5.640625 C 20.234375 6.734375 19.070312 7.601562 17.46875 8.25 C 15.875 8.894531 13.804688 9.21875 11.265625 9.21875 Z M 11.3125 -11.1875 C 12.363281 -11.1875 13.1875 -11.492188 13.78125 -12.109375 C 14.375 -12.722656 14.671875 -13.601562 14.671875 -14.75 C 14.671875 -15.882812 14.375 -16.753906 13.78125 -17.359375 C 13.1875 -17.972656 12.363281 -18.28125 11.3125 -18.28125 C 10.25 -18.28125 9.425781 -17.972656 8.84375 -17.359375 C 8.269531 -16.753906 7.984375 -15.882812 7.984375 -14.75 C 7.984375 -13.59375 8.269531 -12.707031 8.84375 -12.09375 C 9.425781 -11.488281 10.25 -11.1875 11.3125 -11.1875 Z M 11.265625 5.25 C 13.117188 5.25 14.46875 4.988281 15.3125 4.46875 C 16.164062 3.945312 16.59375 3.265625 16.59375 2.421875 C 16.59375 1.734375 16.375 1.226562 15.9375 0.90625 C 15.507812 0.59375 14.820312 0.421875 13.875 0.390625 L 9.59375 0.203125 C 9.445312 0.203125 9.3125 0.191406 9.1875 0.171875 C 9.0625 0.160156 8.9375 0.15625 8.8125 0.15625 C 7.894531 0.15625 7.195312 0.351562 6.71875 0.75 C 6.238281 1.144531 6 1.6875 6 2.375 C 6 3.300781 6.4375 4.007812 7.3125 4.5 C 8.195312 5 9.515625 5.25 11.265625 5.25 Z M 11.265625 5.25 "/></g></g></g><g fill="#6adafb" fill-opacity="1"><g transform="translate(193.286639, 231.212267)"><g><path d="M 12.625 0.40625 C 10.488281 0.40625 8.617188 -0.0234375 7.015625 -0.890625 C 5.410156 -1.765625 4.164062 -3.046875 3.28125 -4.734375 C 2.394531 -6.421875 1.953125 -8.457031 1.953125 -10.84375 C 1.953125 -13.226562 2.394531 -15.265625 3.28125 -16.953125 C 4.164062 -18.648438 5.410156 -19.9375 7.015625 -20.8125 C 8.617188 -21.6875 10.488281 -22.125 12.625 -22.125 C 14.75 -22.125 16.613281 -21.6875 18.21875 -20.8125 C 19.820312 -19.9375 21.070312 -18.648438 21.96875 -16.953125 C 22.863281 -15.265625 23.3125 -13.226562 23.3125 -10.84375 C 23.3125 -8.457031 22.863281 -6.421875 21.96875 -4.734375 C 21.070312 -3.046875 19.820312 -1.765625 18.21875 -0.890625 C 16.613281 -0.0234375 14.75 0.40625 12.625 0.40625 Z M 12.625 -4.21875 C 15.988281 -4.21875 17.671875 -6.425781 17.671875 -10.84375 C 17.671875 -13.144531 17.238281 -14.828125 16.375 -15.890625 C 15.507812 -16.960938 14.257812 -17.5 12.625 -17.5 C 9.25 -17.5 7.5625 -15.28125 7.5625 -10.84375 C 7.5625 -6.425781 9.25 -4.21875 12.625 -4.21875 Z M 12.625 -4.21875 "/></g></g></g><g fill="#6adafb" fill-opacity="1"><g transform="translate(218.518902, 231.212267)"><g><path d="M 9.9375 0.40625 C 7.5 0.40625 5.695312 -0.253906 4.53125 -1.578125 C 3.375 -2.910156 2.796875 -4.828125 2.796875 -7.328125 L 2.796875 -21.71875 L 8.25 -21.71875 L 8.25 -8.015625 C 8.25 -6.679688 8.53125 -5.707031 9.09375 -5.09375 C 9.664062 -4.488281 10.550781 -4.1875 11.75 -4.1875 C 13.257812 -4.1875 14.429688 -4.679688 15.265625 -5.671875 C 16.109375 -6.671875 16.53125 -8.234375 16.53125 -10.359375 L 16.53125 -21.71875 L 21.984375 -21.71875 L 21.984375 0 L 16.75 0 L 16.75 -3.1875 L 16.34375 -3.28125 C 15.644531 -2.039062 14.789062 -1.113281 13.78125 -0.5 C 12.78125 0.101562 11.5 0.40625 9.9375 0.40625 Z M 9.9375 0.40625 "/></g></g></g><g fill="#6adafb" fill-opacity="1"><g transform="translate(243.633075, 231.212267)"><g><path d="M 14.984375 -5.171875 L 16.390625 -1.140625 C 15.804688 -0.648438 15.066406 -0.269531 14.171875 0 C 13.273438 0.269531 12.265625 0.40625 11.140625 0.40625 C 8.796875 0.40625 7.007812 -0.226562 5.78125 -1.5 C 4.5625 -2.78125 3.953125 -4.644531 3.953125 -7.09375 L 3.953125 -17.40625 L 0.65625 -17.40625 L 0.65625 -21.734375 L 3.953125 -21.734375 L 3.953125 -25.96875 L 9.40625 -26.84375 L 9.40625 -21.734375 L 15.5625 -21.734375 L 15.5625 -17.40625 L 9.40625 -17.40625 L 9.40625 -7.484375 C 9.40625 -6.398438 9.628906 -5.613281 10.078125 -5.125 C 10.523438 -4.632812 11.175781 -4.390625 12.03125 -4.390625 C 13 -4.390625 13.84375 -4.648438 14.5625 -5.171875 Z M 14.984375 -5.171875 "/></g></g></g><g fill="#6adafb" fill-opacity="1"><g transform="translate(260.500509, 231.212267)"><g><path d="M 5.84375 -24.3125 C 4.863281 -24.3125 4.0625 -24.609375 3.4375 -25.203125 C 2.820312 -25.796875 2.515625 -26.566406 2.515625 -27.515625 C 2.515625 -28.453125 2.820312 -29.21875 3.4375 -29.8125 C 4.0625 -30.40625 4.863281 -30.703125 5.84375 -30.703125 C 6.5 -30.703125 7.082031 -30.5625 7.59375 -30.28125 C 8.101562 -30.007812 8.5 -29.632812 8.78125 -29.15625 C 9.070312 -28.675781 9.21875 -28.128906 9.21875 -27.515625 C 9.21875 -26.898438 9.070312 -26.347656 8.78125 -25.859375 C 8.5 -25.378906 8.101562 -25 7.59375 -24.71875 C 7.082031 -24.445312 6.5 -24.3125 5.84375 -24.3125 Z M 3.125 0 L 3.125 -21.71875 L 8.578125 -21.71875 L 8.578125 0 Z M 3.125 0 "/></g></g></g><g fill="#d76627" fill-opacity="1"><g transform="translate(302.922786, 247.141919)"><g><path d="M 39.640625 -22.984375 L 4.375 -8.828125 L 4.375 -18.875 L 26.625 -27.28125 L 26.625 -28.109375 L 4.375 -36.515625 L 4.375 -46.515625 L 39.640625 -32.375 Z M 39.640625 -22.984375 "/></g></g></g><g fill="#d76627" fill-opacity="1"><g transform="translate(281.325747, 234.552877)"><g><path d="M 6.546875 5.078125 L 0.140625 5.078125 L 13.40625 -37.609375 L 19.828125 -37.609375 Z M 6.546875 5.078125 "/></g></g></g></svg>